<?xml version="1.0" encoding="UTF-8" standalone="no"?>
<!-- Creator: CorelDRAW -->
<svg
   xmlns:dc="http://purl.org/dc/elements/1.1/"
   xmlns:cc="http://creativecommons.org/ns#"
   xmlns:rdf="http://www.w3.org/1999/02/22-rdf-syntax-ns#"
   xmlns:svg="http://www.w3.org/2000/svg"
   xmlns="http://www.w3.org/2000/svg"
   xmlns:sodipodi="http://sodipodi.sourceforge.net/DTD/sodipodi-0.dtd"
   xmlns:inkscape="http://www.inkscape.org/namespaces/inkscape"
   xml:space="preserve"
   width="1024px"
   height="731px"
   style="shape-rendering:geometricPrecision; text-rendering:geometricPrecision; image-rendering:optimizeQuality; fill-rule:evenodd"
   viewBox="0 0 1024 732"
   id="svg2"
   sodipodi:version="0.32"
   inkscape:version="0.46"
   sodipodi:docname="Brain_diagram_ja.svg"
   sodipodi:docbase="C:\Documents and Settings\w\My Documents\My Pictures"
   inkscape:export-filename="C:\Documents and Settings\w\My Documents\My Pictures\Brain_diagram_ja.png"
   inkscape:export-xdpi="140.625"
   inkscape:export-ydpi="140.625"
   inkscape:output_extension="org.inkscape.output.svg.inkscape"><metadata
   id="metadata456"><rdf:RDF><cc:Work
       rdf:about=""><dc:format>image/svg+xml</dc:format><dc:type
         rdf:resource="http://purl.org/dc/dcmitype/StillImage" /></cc:Work></rdf:RDF></metadata><sodipodi:namedview
   inkscape:window-height="746"
   inkscape:window-width="1280"
   inkscape:pageshadow="2"
   inkscape:pageopacity="0.0"
   guidetolerance="10.0"
   gridtolerance="10.0"
   objecttolerance="10.0"
   borderopacity="1.0"
   bordercolor="#666666"
   pagecolor="#ffffff"
   id="base"
   inkscape:zoom="1.0718648"
   inkscape:cx="885.90103"
   inkscape:cy="503.55679"
   inkscape:window-x="0"
   inkscape:window-y="0"
   inkscape:current-layer="svg2"
   showgrid="false" />
 <defs
   id="defs4"><inkscape:perspective
   sodipodi:type="inkscape:persp3d"
   inkscape:vp_x="0 : 365.5 : 1"
   inkscape:vp_y="0 : 1000 : 0"
   inkscape:vp_z="1024 : 365.5 : 1"
   inkscape:persp3d-origin="512 : 243.66667 : 1"
   id="perspective237" />
  <style
   type="text/css"
   id="style6">
   
    .str2 {stroke:#000000;stroke-width:2}
    .str0 {stroke:#000000;stroke-width:2}
    .str1 {stroke:#000000;stroke-width:4}
    .str3 {stroke:#000000;stroke-width:2;stroke-dasharray:5 7}
    .fil5 {fill:none}
    .fil6 {fill:#000000}
    .fil2 {fill:#FFFFFF}
    .fil1 {fill:#B4D8EC}
    .fil3 {fill:#B6CF9D}
    .fil4 {fill:#F7A6B6}
    .fil0 {fill:#FCFB98}
    .fnt4 {font-weight:normal;font-size:14;font-family:Arial}
    .fnt3 {font-weight:normal;font-size:16;font-family:Arial}
    .fnt2 {font-weight:normal;font-size:18;font-family:Arial}
    .fnt1 {font-weight:normal;font-size:23;font-family:Arial}
    .fnt0 {font-weight:normal;font-size:26;font-family:Arial}
   
  </style>
 
  
  
  
  
  
  
  
  
  
  
  
  
  
  
  
  
  
  
  
  
  
  
  
  
  
  
  
  
  
  
  
  
  
  
  
  
  
  
  
  
  
  
  
  
  
  
  
  
  
  
  
  
  
  
  
  
  
  
  
  
  
  
  
  
  
  
  
  
  
  
  
  
  
  
  
  
  
  
  
  
  
  
  
  
  
  
  
  
  
  
  
  
  
  
  
  
  
  
  
  
  
  
  
  
  
  
  
  
  
  
  
  
  
  
  
  
  
  
  
  
  
  
  
  
  
  
  
  
  
  
  
  
  
  
  
  
  
  
  
  
  
  
  
  
  
  
  
  
  
  
  
  
  
  
  
  
  
  
  
  
  
  
  
  
  
  
  
  
  
  
  
  
  
  
  
  
  
  
  
  
  
  
  
  
  
  
  
  
  
  
  
  
  
  
  
  
  
  
  
  
  
  
  
  
  
  
  
  
  
  
  
  
  
  
  
  
 
   
  
   
  
   
  
   

  
   

  </defs>
 






























<g
   id="g2800"><path
     class="fil0"
     d="M 564,54 C 577,52 590,53 602,60 C 640,53 668,59 685,78 C 699,75 714,79 728,89 C 767,106 795,128 817,153 C 853,168 867,186 869,206 C 888,220 900,237 908,256 L 798,413 L 455,370 L 352,209 L 564,54 z"
     id="path9"
     style="fill:#fcfb98" /><path
     class="fil1"
     d="M 573,52 L 558,90 C 494,95 480,115 500,147 C 512,161 490,173 484,189 C 478,209 471,230 461,251 C 461,305 430,301 433,320 L 455,349 L 264,548 C 169,563 118,555 104,528 C 75,518 57,486 51,432 C 36,416 35,401 40,385 C 38,379 37,373 41,367 C 33,341 37,327 42,314 C 44,294 54,277 69,262 C 68,237 83,224 103,216 C 119,165 191,130 220,122 C 239,105 265,95 297,91 C 313,84 328,79 343,77 C 371,59 403,56 435,56 C 461,47 488,44 516,50 L 573,52 z"
     id="path11"
     style="fill:#b4d8ec" /><path
     class="fil2 str0"
     d="M 518,579 C 525,607 538,626 559,634 C 589,648 612,682 636,712 C 649,705 663,699 674,689 L 560,553 L 518,579 z"
     id="path13"
     style="fill:#8a686e;fill-opacity:0.60512821;stroke:#000000;stroke-width:2" /><path
     class="fil2 str0"
     d="M 551,571 C 551,577 552,583 558,589 C 560,623 573,634 591,634 C 671,685 732,688 778,658 C 797,647 827,636 829,625 C 851,614 864,603 876,592 C 895,576 895,548 887,513 C 697,507 601,532 551,571 z"
     id="path15"
     style="fill:#9487f4;fill-opacity:1;stroke:#000000;stroke-width:2" /><path
     class="fil3"
     d="M 564,312 L 830,354 C 869,400 908,446 946,492 C 918,519 880,523 839,517 C 822,526 796,531 757,517 C 742,526 727,532 712,537 C 688,550 663,554 637,554 C 613,558 592,561 583,554 C 568,566 555,571 544,574 C 527,584 513,587 499,590 C 487,619 458,631 418,631 C 391,643 364,644 336,619 C 316,609 297,597 287,573 C 280,565 274,558 268,550 C 265,522 272,497 293,476 C 313,465 316,436 328,416 C 351,389 388,378 427,370 C 444,353 464,341 494,343 C 511,326 531,311 564,312 z"
     id="path17"
     style="fill:#b6cf9d" /><path
     sodipodi:nodetypes="cccssssssssssccccccc"
     class="fil4"
     d="M 906,255 C 877,281 858,297 833,327 C 826,352 830,377 840,402 C 840.0712,411.7227 818.53919,420.0795 813.12287,429.47625 C 810.04963,434.808 795.7036,474.18241 789.13459,477.72541 C 783.12726,480.96547 777.5221,481.41507 775.68981,487.52566 C 775.46476,488.2762 764.25264,498.52964 762.76231,499.53112 C 753.30312,505.88757 748.92231,505.57819 750.52375,508.06332 C 752.8499,511.67306 753.6896,514.05082 757.11173,515.47933 C 760.53387,516.90785 787.43315,524.31253 791.41544,523.80593 C 795.48353,523.2884 811.15743,525.07711 815.09113,524.83054 C 818.95116,524.5886 824.29043,522.73748 827.4493,521.90117 C 831.45917,520.83956 837.14236,515.91923 839.36092,516.05367 C 855.87864,517.0546 875.02222,517.39291 897.36941,514.59961 C 931.68151,505.74521 916.9636,510.40581 948,493 C 958,481 966,465 974,437 C 981,426 980,408 977,391 C 983,367 972,358 957,341 C 953,326 948,307 930,292 C 931,282 926,266 906,255 z"
     id="path19"
     style="fill:#f7a6b6" /><path
     class="fil5 str1"
     d="M 436,56 C 405,54 370,60 340,77 C 325,78 309,86 296,92 C 267,94 242,104 220,121 C 201,127 181,134 164,149 C 132,168 111,190 101,217 C 80,224 69,240 69,262 C 54,275 44,292 42,314 C 34,331 35,348 40,365 C 39,371 35,378 40,384 C 35,395 37,406 42,417 C 45,417 46,430 50,432 C 52,461 59,480 68,494 C 78,510 88,524 104,528 C 120,560 186,558 266,547 C 273,558 280,566 287,574 C 298,597 316,611 338,620 C 356,636 378,647 419,631 C 458,629 489,620 499,590 C 509,589 522,584 543,574 C 558,571 570,563 581,554 C 592,562 615,558 638,554 C 674,552 699,547 711,537 C 728,532 745,527 758,517 C 788,527 816,531 839,517 C 906,524 959,510 973,438 C 984,426 981,408 976,390 C 987,372 972,357 957,341 C 955,320 945,305 930,292 C 932,278 927,266 907,256 C 899,232 885,217 868,206 C 868,181 847,165 816,153 C 792,124 762,103 727,88 C 713,77 699,76 685,78 C 669,58 641,53 603,60 C 593,53 582,53 572,53 C 549,51 529,50 512,50 C 483,44 459,48 436,56 z"
     id="path21"
     style="fill:none;stroke:#000000;stroke-width:4" /><path
     class="fil5 str0"
     d="M 149,168 C 138,178 138,185 145,189"
     id="path23"
     style="fill:none;stroke:#000000;stroke-width:2" /><path
     class="fil5 str0"
     d="M 178,155 C 227,121 263,118 288,135"
     id="path25"
     style="fill:none;stroke:#000000;stroke-width:2" /><path
     class="fil5 str0"
     d="M 254,184 C 273,170 281,143 296,124 C 316,94 354,119 378,117"
     id="path27"
     style="fill:none;stroke:#000000;stroke-width:2" /><path
     class="fil5 str0"
     d="M 129,215 C 117,229 132,241 132,254"
     id="path29"
     style="fill:none;stroke:#000000;stroke-width:2" /><path
     class="fil5 str0"
     d="M 91,256 C 108,247 104,227 120,213 C 131,199 167,198 180,179 C 194,158 212,151 233,155"
     id="path31"
     style="fill:none;stroke:#000000;stroke-width:2" /><path
     class="fil5 str0"
     d="M 217,174 C 228,163 236,152 243,141"
     id="path33"
     style="fill:none;stroke:#000000;stroke-width:2" /><path
     class="fil5 str0"
     d="M 285,176 C 296,168 301,158 300,147"
     id="path35"
     style="fill:none;stroke:#000000;stroke-width:2" /><path
     class="fil5 str0"
     d="M 274,108 C 282,111 293,109 310,97"
     id="path37"
     style="fill:none;stroke:#000000;stroke-width:2" /><path
     class="fil5 str0"
     d="M 297,93 C 293,98 290,103 290,107"
     id="path39"
     style="fill:none;stroke:#000000;stroke-width:2" /><path
     class="fil5 str0"
     d="M 341,77 C 343,81 346,84 349,84"
     id="path41"
     style="fill:none;stroke:#000000;stroke-width:2" /><path
     class="fil5 str0"
     d="M 369,65 C 365,70 362,74 360,78"
     id="path43"
     style="fill:none;stroke:#000000;stroke-width:2" /><path
     class="fil5 str0"
     d="M 457,64 C 449,65 441,63 433,56"
     id="path45"
     style="fill:none;stroke:#000000;stroke-width:2" /><path
     class="fil5 str0"
     d="M 471,124 C 461,122 453,118 457,95 C 458,75 442,69 414,71 C 388,73 364,75 353,81 C 344,90 334,99 322,109"
     id="path47"
     style="fill:none;stroke:#000000;stroke-width:2" /><path
     class="fil5 str0"
     d="M 357,89 C 350,96 348,104 350,112"
     id="path49"
     style="fill:none;stroke:#000000;stroke-width:2" /><path
     class="fil5 str0"
     d="M 431,82 C 421,99 407,114 397,123 C 376,145 362,169 384,195"
     id="path51"
     style="fill:none;stroke:#000000;stroke-width:2" /><path
     class="fil5 str0"
     d="M 372,169 C 361,170 353,163 346,153 C 341,143 327,143 321,124"
     id="path53"
     style="fill:none;stroke:#000000;stroke-width:2" /><path
     class="fil5 str0"
     d="M 454,129 C 405,131 406,162 382,173"
     id="path55"
     style="fill:none;stroke:#000000;stroke-width:2" /><path
     class="fil5 str0"
     d="M 486,178 C 490,162 479,156 454,157 C 442,158 430,158 421,153"
     id="path57"
     style="fill:none;stroke:#000000;stroke-width:2" /><path
     class="fil5 str0"
     d="M 461,182 C 435,191 410,194 384,196 C 372,195 355,234 353,247"
     id="path59"
     style="fill:none;stroke:#000000;stroke-width:2" /><path
     class="fil5 str0"
     d="M 48,324 C 55,313 62,307 71,304"
     id="path61"
     style="fill:none;stroke:#000000;stroke-width:2" /><path
     class="fil5 str0"
     d="M 71,311 C 67,294 98,289 107,279 C 113,274 118,255 149,248 C 166,242 180,224 200,206 C 208,197 223,193 240,192"
     id="path63"
     style="fill:none;stroke:#000000;stroke-width:2" /><path
     class="fil5 str0"
     d="M 211,167 C 202,179 195,194 205,201"
     id="path65"
     style="fill:none;stroke:#000000;stroke-width:2" /><path
     class="fil5 str0"
     d="M 169,236 C 167,248 167,260 168,271"
     id="path67"
     style="fill:none;stroke:#000000;stroke-width:2" /><path
     class="fil5 str0"
     d="M 199,257 C 192,268 180,281 185,296"
     id="path69"
     style="fill:none;stroke:#000000;stroke-width:2" /><path
     class="fil5 str0"
     d="M 175,292 C 193,297 203,315 216,320"
     id="path71"
     style="fill:none;stroke:#000000;stroke-width:2" /><path
     class="fil5 str0"
     d="M 184,282 C 178,272 169,267 157,276 C 140,286 124,297 107,307 C 91,321 86,335 93,349"
     id="path73"
     style="fill:none;stroke:#000000;stroke-width:2" /><path
     class="fil5 str0"
     d="M 49,352 C 62,337 76,330 90,331"
     id="path75"
     style="fill:none;stroke:#000000;stroke-width:2" /><path
     class="fil5 str0"
     d="M 71,335 C 68,332 63,331 57,330"
     id="path77"
     style="fill:none;stroke:#000000;stroke-width:2" /><path
     class="fil5 str0"
     d="M 103,319 C 127,306 139,309 143,322 C 153,376 169,386 184,400"
     id="path79"
     style="fill:none;stroke:#000000;stroke-width:2" /><path
     class="fil5 str0"
     d="M 156,299 C 152,303 146,309 140,316"
     id="path81"
     style="fill:none;stroke:#000000;stroke-width:2" /><path
     class="fil5 str0"
     d="M 206,268 C 224,252 249,235 202,219"
     id="path83"
     style="fill:none;stroke:#000000;stroke-width:2" /><path
     class="fil5 str0"
     d="M 229,242 C 258,241 274,247 275,263 C 276,274 269,285 270,297"
     id="path85"
     style="fill:none;stroke:#000000;stroke-width:2" /><path
     class="fil5 str0"
     d="M 350,386 C 375,362 390,340 373,302 C 367,283 360,265 353,247 C 322,247 295,252 275,262"
     id="path87"
     style="fill:none;stroke:#000000;stroke-width:2" /><path
     class="fil5 str0"
     d="M 323,276 C 308,290 276,299 278,324 C 279,371 296,381 307,392 C 311,395 315,407 325,419"
     id="path89"
     style="fill:none;stroke:#000000;stroke-width:2" /><path
     class="fil5 str0"
     d="M 256,149 C 251,168 230,188 249,210 C 256,205 275,205 284,203 C 300,193 343,210 360,198"
     id="path91"
     style="fill:none;stroke:#000000;stroke-width:2" /><path
     class="fil5 str0"
     d="M 436,269 C 444,239 429,221 400,212"
     id="path93"
     style="fill:none;stroke:#000000;stroke-width:2" /><path
     class="fil5 str0"
     d="M 453,346 C 439,344 409,323 413,302 C 410,277 395,268 394,258 C 392,253 399,241 393,234"
     id="path95"
     style="fill:none;stroke:#000000;stroke-width:2" /><path
     class="fil5 str0"
     d="M 308,393 C 316,380 316,368 296,354"
     id="path97"
     style="fill:none;stroke:#000000;stroke-width:2" /><path
     class="fil5 str0"
     d="M 243,275 C 244,289 245,302 251,316"
     id="path99"
     style="fill:none;stroke:#000000;stroke-width:2" /><path
     class="fil5 str0"
     d="M 278,324 C 262,319 249,312 244,322 C 239,326 225,332 229,350 C 228,358 199,362 188,367"
     id="path101"
     style="fill:none;stroke:#000000;stroke-width:2" /><path
     class="fil5 str0"
     d="M 209,369 C 200,376 203,390 199,400 C 201,421 225,425 250,428"
     id="path103"
     style="fill:none;stroke:#000000;stroke-width:2" /><path
     class="fil5 str0"
     d="M 96,366 C 102,372 113,377 137,380 C 147,382 146,389 169,396 C 178,397 189,398 199,400"
     id="path105"
     style="fill:none;stroke:#000000;stroke-width:2" /><path
     class="fil5 str0"
     d="M 111,336 C 105,342 92,347 91,355 C 89,363 83,371 78,379 C 70,394 65,406 66,416 C 67,437 90,448 102,461"
     id="path107"
     style="fill:none;stroke:#000000;stroke-width:2" /><path
     class="fil5 str0"
     d="M 47,371 C 44,369 42,367 40,365"
     id="path109"
     style="fill:none;stroke:#000000;stroke-width:2" /><path
     class="fil5 str0"
     d="M 70,362 C 63,369 56,376 51,385 C 47,396 48,405 46,424"
     id="path111"
     style="fill:none;stroke:#000000;stroke-width:2" /><path
     class="fil5 str0"
     d="M 51,387 C 51,384 49,382 47,380"
     id="path113"
     style="fill:none;stroke:#000000;stroke-width:2" /><path
     class="fil5 str0"
     d="M 51,432 C 53,426 62,420 57,413"
     id="path115"
     style="fill:none;stroke:#000000;stroke-width:2" /><path
     class="fil5 str0"
     d="M 70,495 C 72,491 71,486 73,484"
     id="path117"
     style="fill:none;stroke:#000000;stroke-width:2" /><path
     class="fil5 str0"
     d="M 104,528 C 110,518 111,512 107,511"
     id="path119"
     style="fill:none;stroke:#000000;stroke-width:2" /><path
     class="fil5 str0"
     d="M 114,515 L 109,512"
     id="path121"
     style="fill:none;stroke:#000000;stroke-width:2" /><path
     class="fil5 str0"
     d="M 87,449 C 77,469 88,483 115,492"
     id="path123"
     style="fill:none;stroke:#000000;stroke-width:2" /><path
     class="fil5 str0"
     d="M 84,394 C 106,406 129,431 149,438 C 171,446 203,474 222,461"
     id="path125"
     style="fill:none;stroke:#000000;stroke-width:2" /><path
     class="fil5 str0"
     d="M 250,446 C 235,449 217,461 217,469 C 218,483 262,493 280,489"
     id="path127"
     style="fill:none;stroke:#000000;stroke-width:2" /><path
     class="fil5 str0"
     d="M 104,471 C 111,477 121,479 140,470 C 160,464 167,471 181,475"
     id="path129"
     style="fill:none;stroke:#000000;stroke-width:2" /><path
     class="fil5 str0"
     d="M 219,473 C 195,471 183,472 175,480 C 161,489 147,487 142,488 C 136,490 119,507 95,495"
     id="path131"
     style="fill:none;stroke:#000000;stroke-width:2" /><path
     class="fil5 str0"
     d="M 154,547 C 187,549 222,548 258,543"
     id="path133"
     style="fill:none;stroke:#000000;stroke-width:2" /><path
     class="fil5 str0"
     d="M 192,507 C 184,505 180,501 180,494 C 179,508 171,511 165,517 C 158,522 159,530 153,537"
     id="path135"
     style="fill:none;stroke:#000000;stroke-width:2" /><path
     class="fil5 str0"
     d="M 228,488 C 208,488 189,487 175,480"
     id="path137"
     style="fill:none;stroke:#000000;stroke-width:2" /><path
     class="fil5 str0"
     d="M 217,488 C 220,505 243,507 255,513"
     id="path139"
     style="fill:none;stroke:#000000;stroke-width:2" /><path
     class="fil5 str0"
     d="M 209,503 C 211,499 217,499 221,496"
     id="path141"
     style="fill:none;stroke:#000000;stroke-width:2" /><path
     class="fil5 str0"
     d="M 237,500 C 242,496 248,494 252,489"
     id="path143"
     style="fill:none;stroke:#000000;stroke-width:2" /><path
     class="fil5 str0"
     d="M 266,501 C 257,486 285,481 292,465"
     id="path145"
     style="fill:none;stroke:#000000;stroke-width:2" /><path
     class="fil5 str0"
     d="M 264,406 C 280,419 303,426 317,430"
     id="path147"
     style="fill:none;stroke:#000000;stroke-width:2" /><path
     class="fil5 str0"
     d="M 249,468 C 278,468 304,449 309,427 C 310,425 317,424 321,423"
     id="path149"
     style="fill:none;stroke:#000000;stroke-width:2" /><path
     class="fil5 str0"
     d="M 498,63 C 503,58 510,53 521,50"
     id="path151"
     style="fill:none;stroke:#000000;stroke-width:2" /><path
     class="fil5 str0"
     d="M 516,73 C 490,73 468,77 457,96"
     id="path153"
     style="fill:none;stroke:#000000;stroke-width:2" /><path
     class="fil5 str0"
     d="M 489,91 C 495,95 499,99 499,104"
     id="path155"
     style="fill:none;stroke:#000000;stroke-width:2" /><path
     class="fil5 str0"
     d="M 776,364 C 780,318 691,305 647,381 C 641,397 587,391 559,399 C 534,409 509,423 484,438 C 474,454 439,428 419,430 C 354,437 353,534 417,550"
     id="path157"
     style="fill:none;stroke:#000000;stroke-width:2" /><path
     class="fil5 str0"
     d="M 536,327 C 537,347 515,386 548,404"
     id="path159"
     style="fill:none;stroke:#000000;stroke-width:2" /><path
     class="fil5 str0"
     d="M 475,369 C 486,365 489,348 496,339"
     id="path161"
     style="fill:none;stroke:#000000;stroke-width:2" /><path
     class="fil5 str0"
     d="M 453,394 C 448,405 454,409 465,410"
     id="path163"
     style="fill:none;stroke:#000000;stroke-width:2" /><path
     class="fil5 str0"
     d="M 495,581 C 534,546 528,483 467,487 C 446,489 431,484 421,474"
     id="path165"
     style="fill:none;stroke:#000000;stroke-width:2" /><path
     class="fil5 str0"
     d="M 525,473 C 539,498 553,492 570,492 C 600,491 617,461 596,429"
     id="path167"
     style="fill:none;stroke:#000000;stroke-width:2" /><path
     class="fil5 str0"
     d="M 546,492 C 533,496 523,502 516,510"
     id="path169"
     style="fill:none;stroke:#000000;stroke-width:2" /><path
     class="fil5 str0"
     d="M 493,514 C 481,518 469,531 455,540 C 443,558 426,565 417,575 C 407,590 402,621 345,604"
     id="path171"
     style="fill:none;stroke:#000000;stroke-width:2" /><path
     class="fil5 str0"
     d="M 494,591 C 466,607 421,593 415,600"
     id="path173"
     style="fill:none;stroke:#000000;stroke-width:2" /><path
     class="fil5 str0"
     d="M 567,452 C 557,449 551,435 546,428"
     id="path175"
     style="fill:none;stroke:#000000;stroke-width:2" /><path
     class="fil5 str0"
     d="M 392,411 C 414,423 433,420 452,405"
     id="path177"
     style="fill:none;stroke:#000000;stroke-width:2" /><path
     class="fil5 str0"
     d="M 418,418 C 410,430 401,435 390,434 C 378,432 361,445 341,461 C 325,474 319,488 315,503 C 312,521 309,529 305,536"
     id="path179"
     style="fill:none;stroke:#000000;stroke-width:2" /><path
     class="fil5 str0"
     d="M 327,442 C 325,454 329,462 337,465"
     id="path181"
     style="fill:none;stroke:#000000;stroke-width:2" /><path
     class="fil5 str0"
     d="M 314,587 C 304,584 292,574 284,571"
     id="path183"
     style="fill:none;stroke:#000000;stroke-width:2" /><path
     class="fil5 str0"
     d="M 356,542 C 318,560 310,588 339,621"
     id="path185"
     style="fill:none;stroke:#000000;stroke-width:2" /><path
     class="fil5 str0"
     d="M 333,503 C 331,516 340,525 349,533 C 357,537 357,548 359,551 C 371,568 373,579 374,589"
     id="path187"
     style="fill:none;stroke:#000000;stroke-width:2" /><path
     class="fil5 str0"
     d="M 611,358 C 625,342 650,355 669,353"
     id="path189"
     style="fill:none;stroke:#000000;stroke-width:2" /><path
     class="fil5 str0"
     d="M 562,373 C 574,363 579,350 575,332"
     id="path191"
     style="fill:none;stroke:#000000;stroke-width:2" /><path
     class="fil5 str0"
     d="M 586,365 C 582,362 578,359 575,355"
     id="path193"
     style="fill:none;stroke:#000000;stroke-width:2" /><path
     class="fil5 str0"
     d="M 581,554 C 577,544 580,534 590,525"
     id="path195"
     style="fill:none;stroke:#000000;stroke-width:2" /><path
     class="fil5 str0"
     d="M 562,548 C 565,543 575,542 581,539"
     id="path197"
     style="fill:none;stroke:#000000;stroke-width:2" /><path
     class="fil5 str0"
     d="M 639,509 C 636,528 649,537 677,538"
     id="path199"
     style="fill:none;stroke:#000000;stroke-width:2" /><path
     class="fil5 str0"
     d="M 630,540 C 635,520 622,501 596,482"
     id="path201"
     style="fill:none;stroke:#000000;stroke-width:2" /><path
     class="fil5 str0"
     d="M 631,528 C 634,526 637,524 640,522"
     id="path203"
     style="fill:none;stroke:#000000;stroke-width:2" /><path
     class="fil5 str0"
     d="M 683,467 C 668,464 656,458 656,442 C 653,428 635,414 643,386"
     id="path205"
     style="fill:none;stroke:#000000;stroke-width:2" /><path
     class="fil5 str0"
     d="M 612,480 C 624,492 648,477 670,477 C 724,475 738,504 712,536"
     id="path207"
     style="fill:none;stroke:#000000;stroke-width:2" /><path
     class="fil5 str0"
     d="M 724,512 C 750,511 768,501 779,480"
     id="path209"
     style="fill:none;stroke:#000000;stroke-width:2" /><path
     class="fil5 str0"
     d="M 758,518 L 749,508"
     id="path211"
     style="fill:none;stroke:#000000;stroke-width:2" /><path
     class="fil5 str0"
     d="M 798,506 C 814,506 828,509 839,518"
     id="path213"
     style="fill:none;stroke:#000000;stroke-width:2" /><path
     class="fil5 str0"
     d="M 830,500 C 825,503 820,505 815,507"
     id="path215"
     style="fill:none;stroke:#000000;stroke-width:2" /><path
     class="fil5 str0"
     d="M 856,507 C 853,490 864,482 865,472"
     id="path217"
     style="fill:none;stroke:#000000;stroke-width:2" /><path
     class="fil5 str0"
     d="M 675,403 C 683,410 693,416 691,424 C 694,441 715,443 727,445 C 751,455 773,466 760,486"
     id="path219"
     style="fill:none;stroke:#000000;stroke-width:2" /><path
     class="fil5 str0"
     d="M 549,310 C 536,306 524,298 512,284"
     id="path221"
     style="fill:none;stroke:#000000;stroke-width:2" /><path
     class="fil5 str0"
     d="M 588,152 C 579,158 569,170 555,179 C 541,187 526,194 519,219 C 517,241 519,256 514,270 C 510,283 508,295 514,304"
     id="path223"
     style="fill:none;stroke:#000000;stroke-width:2" /><path
     class="fil5 str0"
     d="M 524,140 C 557,148 568,158 565,171"
     id="path225"
     style="fill:none;stroke:#000000;stroke-width:2" /><path
     class="fil5 str0"
     d="M 727,434 C 733,424 733,415 733,405 C 743,389 797,411 804,366"
     id="path227"
     style="fill:none;stroke:#000000;stroke-width:2" /><path
     class="fil5 str0"
     d="M 728,364 C 733,375 734,389 733,405"
     id="path229"
     style="fill:none;stroke:#000000;stroke-width:2" /><path
     class="fil5 str0"
     d="M 512,183 C 518,192 521,201 523,209"
     id="path231"
     style="fill:none;stroke:#000000;stroke-width:2" /><path
     class="fil5 str0"
     d="M 791,478 C 807,454 807,421 836,411"
     id="path233"
     style="fill:none;stroke:#000000;stroke-width:2" /><path
     class="fil5 str0"
     d="M 753,457 C 755,451 758,446 761,442"
     id="path235"
     style="fill:none;stroke:#000000;stroke-width:2" /><path
     class="fil5 str0"
     d="M 803,329 C 796,325 793,318 796,306"
     id="path237"
     style="fill:none;stroke:#000000;stroke-width:2" /><path
     class="fil5 str0"
     d="M 773,346 C 781,341 788,331 795,318"
     id="path239"
     style="fill:none;stroke:#000000;stroke-width:2" /><path
     class="fil5 str0"
     d="M 815,269 C 816,294 837,296 833,324"
     id="path241"
     style="fill:none;stroke:#000000;stroke-width:2" /><path
     class="fil5 str0"
     d="M 762,322 C 763,295 777,279 794,265 C 804,254 816,248 809,213 C 813,192 838,169 816,154 C 790,142 768,118 728,117"
     id="path243"
     style="fill:none;stroke:#000000;stroke-width:2" /><path
     class="fil5 str0"
     d="M 546,288 C 558,267 593,255 596,247 C 604,226 598,205 599,185 C 605,168 621,161 639,156 C 667,124 697,120 728,144"
     id="path245"
     style="fill:none;stroke:#000000;stroke-width:2" /><path
     class="fil5 str0"
     d="M 600,220 C 596,215 591,212 586,209"
     id="path247"
     style="fill:none;stroke:#000000;stroke-width:2" /><path
     class="fil5 str0"
     d="M 595,250 C 604,245 612,243 621,244"
     id="path249"
     style="fill:none;stroke:#000000;stroke-width:2" /><path
     class="fil5 str0"
     d="M 505,116 C 556,121 620,129 624,161"
     id="path251"
     style="fill:none;stroke:#000000;stroke-width:2" /><path
     class="fil5 str0"
     d="M 629,123 C 622,113 605,108 597,101"
     id="path253"
     style="fill:none;stroke:#000000;stroke-width:2" /><path
     class="fil5 str0"
     d="M 597,77 C 604,89 608,100 615,112"
     id="path255"
     style="fill:none;stroke:#000000;stroke-width:2" /><path
     class="fil5 str0"
     d="M 603,60 C 615,77 638,78 639,100"
     id="path257"
     style="fill:none;stroke:#000000;stroke-width:2" /><path
     class="fil5 str0"
     d="M 634,85 C 636,82 638,80 640,77"
     id="path259"
     style="fill:none;stroke:#000000;stroke-width:2" /><path
     class="fil5 str0"
     d="M 674,131 C 662,102 636,103 623,96"
     id="path261"
     style="fill:none;stroke:#000000;stroke-width:2" /><path
     class="fil5 str0"
     d="M 659,100 C 675,106 683,116 683,129"
     id="path263"
     style="fill:none;stroke:#000000;stroke-width:2" /><path
     class="fil5 str0"
     d="M 635,67 C 655,72 672,80 686,94"
     id="path265"
     style="fill:none;stroke:#000000;stroke-width:2" /><path
     class="fil5 str0"
     d="M 671,106 C 676,93 699,90 728,89"
     id="path267"
     style="fill:none;stroke:#000000;stroke-width:2" /><path
     class="fil5 str0"
     d="M 719,155 C 728,132 779,142 808,164"
     id="path269"
     style="fill:none;stroke:#000000;stroke-width:2" /><path
     class="fil5 str0"
     d="M 625,180 C 641,172 660,170 679,181"
     id="path271"
     style="fill:none;stroke:#000000;stroke-width:2" /><path
     class="fil5 str0"
     d="M 695,140 C 680,155 666,170 685,187 C 720,221 741,240 711,270"
     id="path273"
     style="fill:none;stroke:#000000;stroke-width:2" /><path
     class="fil5 str0"
     d="M 782,162 C 791,175 791,190 785,204"
     id="path275"
     style="fill:none;stroke:#000000;stroke-width:2" /><path
     class="fil5 str0"
     d="M 727,201 C 741,210 749,224 751,243 C 761,290 748,301 734,311"
     id="path277"
     style="fill:none;stroke:#000000;stroke-width:2" /><path
     class="fil5 str0"
     d="M 641,293 C 671,300 693,301 698,285"
     id="path279"
     style="fill:none;stroke:#000000;stroke-width:2" /><path
     class="fil5 str0"
     d="M 674,298 C 681,299 688,302 693,306"
     id="path281"
     style="fill:none;stroke:#000000;stroke-width:2" /><path
     class="fil5 str0"
     d="M 732,327 C 743,312 732,304 686,296"
     id="path283"
     style="fill:none;stroke:#000000;stroke-width:2" /><path
     class="fil5 str0"
     d="M 740,213 C 757,200 760,179 770,162"
     id="path285"
     style="fill:none;stroke:#000000;stroke-width:2" /><path
     class="fil5 str0"
     d="M 809,214 C 830,212 846,220 859,237"
     id="path287"
     style="fill:none;stroke:#000000;stroke-width:2" /><path
     class="fil5 str0"
     d="M 841,199 C 847,201 857,204 869,207"
     id="path289"
     style="fill:none;stroke:#000000;stroke-width:2" /><path
     class="fil5 str0"
     d="M 912,290 C 898,295 889,306 884,321 C 871,331 864,346 860,362"
     id="path291"
     style="fill:none;stroke:#000000;stroke-width:2" /><path
     class="fil5 str0"
     d="M 962,422 C 969,425 973,430 973,438"
     id="path293"
     style="fill:none;stroke:#000000;stroke-width:2" /><path
     class="fil5 str0"
     d="M 941,328 C 937,333 932,335 925,336 C 916,344 910,353 910,364 C 917,381 918,394 914,405"
     id="path295"
     style="fill:none;stroke:#000000;stroke-width:2" /><path
     class="fil5 str0"
     d="M 913,350 C 913,344 911,337 906,331"
     id="path297"
     style="fill:none;stroke:#000000;stroke-width:2" /><path
     class="fil5 str0"
     d="M 937,403 C 943,394 947,384 947,369 C 948,357 951,347 956,341"
     id="path299"
     style="fill:none;stroke:#000000;stroke-width:2" /><path
     class="fil5 str0"
     d="M 947,378 C 957,379 960,385 959,393 C 966,399 969,408 972,416"
     id="path301"
     style="fill:none;stroke:#000000;stroke-width:2" /><path
     class="fil5 str0"
     d="M 677,197 C 668,215 652,232 650,251 C 634,286 579,283 566,310"
     id="path303"
     style="fill:none;stroke:#000000;stroke-width:2" /><path
     class="fil5 str2"
     d="M 771,522 C 733,536 691,552 658,583"
     id="path305"
     style="fill:none;stroke:#000000;stroke-width:2" /><path
     class="fil5 str2"
     d="M 663,571 C 675,562 687,553 699,544"
     id="path307"
     style="fill:none;stroke:#000000;stroke-width:2" /><path
     class="fil5 str2"
     d="M 788,526 C 754,537 718,551 684,569"
     id="path309"
     style="fill:none;stroke:#000000;stroke-width:2" /><path
     class="fil5 str2"
     d="M 811,527 C 759,544 702,568 651,592"
     id="path311"
     style="fill:none;stroke:#000000;stroke-width:2" /><path
     class="fil5 str2"
     d="M 889,523 C 845,537 666,600 647,600 M 646,596 C 721,565 801,541 877,519"
     id="path313"
     style="fill:none;stroke:#000000;stroke-width:2" /><path
     class="fil5 str2"
     d="M 891,544 C 845,561 693,600 657,604 C 736,578 813,557 890,533"
     id="path315"
     style="fill:none;stroke:#000000;stroke-width:2" /><path
     class="fil5 str2"
     d="M 669,552 C 657,604 629,608 597,599 C 584,589 571,589 558,589"
     id="path333"
     style="fill:none;stroke:#000000;stroke-width:2" /><path
     class="fil5 str2"
     d="M 644,598 C 653,583 657,569 659,554"
     id="path335"
     style="fill:none;stroke:#000000;stroke-width:2" /><path
     class="fil5 str2"
     d="M 635,601 C 644,589 649,573 651,554"
     id="path337"
     style="fill:none;stroke:#000000;stroke-width:2" /><path
     class="fil5 str2"
     d="M 623,603 C 637,591 642,575 641,554"
     id="path339"
     style="fill:none;stroke:#000000;stroke-width:2" /><path
     class="fil5 str2"
     d="M 616,602 C 626,589 633,574 634,556"
     id="path341"
     style="fill:none;stroke:#000000;stroke-width:2" /><path
     class="fil5 str2"
     d="M 607,602 C 617,589 625,574 629,557"
     id="path343"
     style="fill:none;stroke:#000000;stroke-width:2" /><path
     class="fil5 str2"
     d="M 600,600 L 623,558"
     id="path345"
     style="fill:none;stroke:#000000;stroke-width:2" /><path
     class="fil5 str2"
     d="M 594,598 C 600,585 604,570 612,560"
     id="path347"
     style="fill:none;stroke:#000000;stroke-width:2" /><path
     class="fil5 str2"
     d="M 590,594 C 595,583 597,570 601,560"
     id="path349"
     style="fill:none;stroke:#000000;stroke-width:2" /><path
     class="fil5 str2"
     d="M 585,593 C 586,581 589,570 592,559"
     id="path351"
     style="fill:none;stroke:#000000;stroke-width:2" /><path
     class="fil5 str2"
     d="M 579,591 L 583,556"
     id="path353"
     style="fill:none;stroke:#000000;stroke-width:2" /><path
     class="fil5 str2"
     d="M 575,590 C 573,581 572,572 572,563"
     id="path355"
     style="fill:none;stroke:#000000;stroke-width:2" /><path
     class="fil5 str2"
     d="M 567,589 C 563,582 563,575 564,568"
     id="path357"
     style="fill:none;stroke:#000000;stroke-width:2" /><path
     class="fil5 str2"
     d="M 561,589 L 557,571"
     id="path359"
     style="fill:none;stroke:#000000;stroke-width:2" /><path
     class="fil5 str2"
     d="M 588,593 C 586,604 591,613 600,621"
     id="path361"
     style="fill:none;stroke:#000000;stroke-width:2" /><path
     class="fil5 str2"
     d="M 578,591 C 576,605 580,619 592,628"
     id="path363"
     style="fill:none;stroke:#000000;stroke-width:2" /><path
     class="fil5 str2"
     d="M 564,590 C 567,609 576,624 590,633"
     id="path365"
     style="fill:none;stroke:#000000;stroke-width:2" /><path
     class="fil5 str2"
     d="M 590,633 C 599,623 607,611 616,603"
     id="path367"
     style="fill:none;stroke:#000000;stroke-width:2" /><path
     class="fil5 str2"
     d="M 869,551 C 841,580 804,604 758,623 C 719,620 680,607 641,599"
     id="path369"
     style="fill:none;stroke:#000000;stroke-width:2" /><path
     class="fil5 str2"
     d="M 677,601 C 709,606 740,611 772,617"
     id="path371"
     style="fill:none;stroke:#000000;stroke-width:2" /><path
     class="fil5 str2"
     d="M 786,610 C 757,605 729,600 701,596"
     id="path373"
     style="fill:none;stroke:#000000;stroke-width:2" /><path
     class="fil5 str2"
     d="M 727,590 C 752,594 773,597 797,604"
     id="path375"
     style="fill:none;stroke:#000000;stroke-width:2" /><path
     class="fil5 str2"
     d="M 746,585 C 768,585 789,590 808,598"
     id="path377"
     style="fill:none;stroke:#000000;stroke-width:2" /><path
     class="fil5 str2"
     d="M 774,578 C 789,580 805,584 820,591"
     id="path379"
     style="fill:none;stroke:#000000;stroke-width:2" /><path
     class="fil5 str2"
     d="M 832,583 C 823,582 812,583 802,583"
     id="path381"
     style="fill:none;stroke:#000000;stroke-width:2" /><path
     class="fil5 str2"
     d="M 843,574 C 823,578 805,578 790,574"
     id="path383"
     style="fill:none;stroke:#000000;stroke-width:2" /><path
     class="fil5 str2"
     d="M 804,570 C 813,572 832,570 851,567 C 865,563 878,558 891,552"
     id="path385"
     style="fill:none;stroke:#000000;stroke-width:2" /><path
     class="fil5 str2"
     d="M 594,630 C 628,654 679,671 738,676"
     id="path387"
     style="fill:none;stroke:#000000;stroke-width:2" /><path
     class="fil5 str2"
     d="M 597,624 C 638,655 694,666 756,670"
     id="path389"
     style="fill:none;stroke:#000000;stroke-width:2" /><path
     class="fil5 str2"
     d="M 601,621 C 667,660 723,668 775,659"
     id="path391"
     style="fill:none;stroke:#000000;stroke-width:2" /><path
     class="fil5 str2"
     d="M 604,616 C 669,652 729,661 786,653"
     id="path393"
     style="fill:none;stroke:#000000;stroke-width:2" /><path
     class="fil5 str2"
     d="M 608,611 C 678,645 741,654 801,647"
     id="path395"
     style="fill:none;stroke:#000000;stroke-width:2" /><path
     class="fil5 str2"
     d="M 613,607 C 676,638 742,648 811,641"
     id="path397"
     style="fill:none;stroke:#000000;stroke-width:2" /><path
     class="fil5 str2"
     d="M 624,603 C 691,635 756,636 821,634"
     id="path399"
     style="fill:none;stroke:#000000;stroke-width:2" /><path
     class="fil5 str2"
     d="M 758,623 C 765,632 790,632 829,626"
     id="path401"
     style="fill:none;stroke:#000000;stroke-width:2" /><path
     class="fil5 str2"
     d="M 770,618 C 776,627 804,624 839,619"
     id="path403"
     style="fill:none;stroke:#000000;stroke-width:2" /><path
     class="fil5 str2"
     d="M 788,610 C 801,614 834,606 871,596"
     id="path405"
     style="fill:none;stroke:#000000;stroke-width:2" /><path
     class="fil5 str2"
     d="M 777,615 C 786,621 820,616 857,608"
     id="path407"
     style="fill:none;stroke:#000000;stroke-width:2" /><path
     class="fil5 str2"
     d="M 885,579 C 844,597 813,607 797,605"
     id="path409"
     style="fill:none;stroke:#000000;stroke-width:2" /><path
     class="fil5 str2"
     d="M 808,598 C 830,597 859,585 888,573"
     id="path411"
     style="fill:none;stroke:#000000;stroke-width:2" /><path
     class="fil5 str2"
     d="M 822,590 C 844,585 867,576 890,566"
     id="path413"
     style="fill:none;stroke:#000000;stroke-width:2" /><path
     class="fil5 str2"
     d="M 891,558 C 873,567 855,574 836,580"
     id="path415"
     style="fill:none;stroke:#000000;stroke-width:2" /><path
     class="fil5 str2"
     d="M 634,601 C 679,617 727,627 774,630"
     id="path417"
     style="fill:none;stroke:#000000;stroke-width:2" /><path
     class="fil6"
     d="M 884,320 C 882,290 835,243 807,252 C 830,236 890,275 884,320 z"
     id="path419"
     style="fill:#000000" /><path
     class="fil6"
     d="M 264,547 C 260,519 273,494 294,473 C 317,455 312,429 322,421 C 336,394 373,377 425,368 C 441,349 462,339 491,340 C 511,323 529,307 566,307 C 568,316 571,325 575,333 C 571,328 565,322 561,315 C 528,312 505,331 492,347 C 469,342 449,349 430,371 C 377,381 339,397 326,424 C 319,448 311,468 296,476 C 279,494 264,520 274,558 C 271,555 268,550 264,547 z"
     id="path421"
     style="fill:#000000" /><path
     class="fil6"
     d="M 567,54 C 558,60 562,75 556,86 C 508,89 481,107 490,140 C 501,153 503,162 496,168 C 482,176 477,197 472,220 C 462,233 456,254 456,276 C 455,295 427,306 431,322 C 433,322 434,322 435,322 C 435,315 439,308 446,302 C 455,297 459,285 462,269 C 461,255 465,241 476,226 C 481,207 483,179 503,170 C 515,165 508,152 497,136 C 484,104 519,96 556,91 C 571,87 567,63 577,55 C 574,54 570,54 567,54 z"
     id="path423"
     style="fill:#000000" /><path
     class="fil5 str0"
     d="M 530,160 C 521,157 513,158 506,164"
     id="path425"
     style="fill:none;stroke:#000000;stroke-width:2" /><path
     class="fil6"
     d="M 903,251 C 896,259 888,268 880,276 C 887,276 896,271 908,256 L 903,251 z"
     id="path441"
     style="fill:#000000" /><path
     class="fil6"
     d="M 881,277 C 864,291 847,306 835,321 C 826,333 825,350 828,369 C 830,383 832,397 835,410 C 839,410 842,410 846,411 C 862,427 902,424 914,430 C 921,440 927,447 931,445 C 938,452 943,460 946,468 C 943,458 949,458 928,434 C 919,425 898,420 865,415 C 842,407 837,393 835,375 C 831,358 829,342 835,325 C 848,309 864,293 881,277 z"
     id="path443"
     style="fill:#000000" /><path
     class="fil5 str3"
     d="M 567,312 L 830,353"
     id="path449"
     style="fill:none;stroke:#000000;stroke-width:2;stroke-dasharray:5, 7" /><path
     class="fil6"
     d="M 838,407 C 841,430 849,451 866,467 C 900,468 921,487 951,488 L 944,495 C 930,496 917,484 904,482 C 893,478 871,477 861,472 C 846,451 837,429 838,407 z"
     id="path451"
     style="fill:#000000" /><path
     class="fil5 str3"
     d="M 432,319 L 455,349"
     id="path453"
     style="fill:none;stroke:#000000;stroke-width:2;stroke-dasharray:5, 7" /><path
     sodipodi:nodetypes="csc"
     id="path2642"
     d="M 930.92134,113.79582 C 929.42464,170.17733 931.39772,209.19857 930.70409,214.95698 C 930.13185,219.70754 903.53268,257.70429 903.53268,257.70429"
     style="fill:none;fill-rule:evenodd;stroke:#000000;stroke-width:3.50478792;stroke-linecap:butt;stroke-linejoin:miter;stroke-miterlimit:4;stroke-dasharray:none;stroke-opacity:1" /><path
     sodipodi:nodetypes="cc"
     id="path2603"
     d="M 757.33165,517.5001 C 799.5627,611.57854 832.26074,680.01087 832.26074,680.01087"
     style="fill:none;fill-rule:evenodd;stroke:#000000;stroke-width:3.50478792;stroke-linecap:butt;stroke-linejoin:miter;stroke-miterlimit:4;stroke-dasharray:none;stroke-opacity:1" /><path
     sodipodi:nodetypes="cc"
     id="path2606"
     d="M 266.01753,547.85707 C 191.69876,624.81825 181.78975,633.40605 181.78975,633.40605"
     style="fill:none;fill-rule:evenodd;stroke:#000000;stroke-width:3.50478792;stroke-linecap:butt;stroke-linejoin:miter;stroke-miterlimit:4;stroke-dasharray:none;stroke-opacity:1" /><path
     sodipodi:nodetypes="csc"
     id="path2608"
     d="M 689.46225,20.698143 C 638.76055,20.86392 650.06933,21.548964 581.24658,21.979154 C 579.26808,21.991521 571.54386,52.738506 571.54386,52.738506"
     style="fill:none;fill-rule:evenodd;stroke:#000000;stroke-width:3.50478792;stroke-linecap:butt;stroke-linejoin:miter;stroke-miterlimit:4;stroke-dasharray:none;stroke-opacity:1" /></g></svg>